<?xml version="1.0" encoding="UTF-8" standalone="no"?>
<!-- Created with Inkscape (http://www.inkscape.org/) -->

<svg
   xmlns:dc="http://purl.org/dc/elements/1.1/"
   xmlns:cc="http://creativecommons.org/ns#"
   xmlns:rdf="http://www.w3.org/1999/02/22-rdf-syntax-ns#"
   xmlns:svg="http://www.w3.org/2000/svg"
   xmlns="http://www.w3.org/2000/svg"
   xmlns:sodipodi="http://sodipodi.sourceforge.net/DTD/sodipodi-0.dtd"
   xmlns:inkscape="http://www.inkscape.org/namespaces/inkscape"
   width="32"
   height="32"
   viewBox="0 0 32 32"
   version="1.1"
   id="svg8"
   inkscape:version="0.92.3 (unknown)"
   sodipodi:docname="cosmic-js.svg">
  <defs
     id="defs2" />
  <sodipodi:namedview
     id="base"
     pagecolor="#f5f5f5"
     bordercolor="#000000"
     borderopacity="0.16470588"
     inkscape:pageopacity="0"
     inkscape:pageshadow="2"
     inkscape:zoom="11.313708"
     inkscape:cx="-0.5961619"
     inkscape:cy="-11.741268"
     inkscape:document-units="px"
     inkscape:current-layer="svg8"
     showgrid="true"
     units="px"
     guidecolor="#00d1ae"
     guideopacity="0.49803922"
     inkscape:window-width="2727"
     inkscape:window-height="1324"
     inkscape:window-x="981"
     inkscape:window-y="573"
     inkscape:window-maximized="0"
     inkscape:snap-global="false">
    <inkscape:grid
       type="xygrid"
       id="grid815"
       color="#3fb6ff"
       opacity="0.1254902"
       empcolor="#3f96ff"
       empopacity="0.29019608" />
  </sodipodi:namedview>
  <metadata
     id="metadata5">
    <rdf:RDF>
      <cc:Work
         rdf:about="">
        <dc:format>image/svg+xml</dc:format>
        <dc:type
           rdf:resource="http://purl.org/dc/dcmitype/StillImage" />
        <dc:title />
      </cc:Work>
    </rdf:RDF>
  </metadata>
  <path
     style="fill:currentColor"
     d="M 4.1777344,0.80664062 C 3.0116302,0.83666098 2.054364,1.1611972 1.3789062,1.8066406 -0.84259906,3.9680993 0.59836784,9.0710137 4.6210938,14.714844 5.1014193,14.114437 5.5821745,13.573063 6.0625,12.972656 4.0811574,9.5503374 3.5409393,6.6094514 4.921875,5.2285156 6.9032176,3.3672544 11.947829,5.1081335 17.111328,9.1308594 17.29145,8.4704118 17.770687,7.9291097 18.371094,7.6289062 13.057493,3.2609464 7.676041,0.7165796 4.1777344,0.80664062 Z m 23.6445316,0.03125 c -2.691456,6.004e-4 -6.46674,1.50860058 -10.470704,4.15039058 0.600406,0.4202849 1.200375,0.9005339 1.800782,1.3808594 3.542401,-1.9213019 6.603439,-2.4029261 7.984375,-1.0820312 1.921302,1.8612613 0.181363,6.7251016 -4.021485,11.6484376 0.660448,0.180122 1.199797,0.661312 1.5,1.261719 C 30.679343,11.352627 33.440112,4.38839 30.738281,1.8066406 30.04406,1.1499396 29.045649,0.83752432 27.822266,0.83789062 Z M 13.087891,8.1113281 C 12.57877,8.5278784 12.069662,8.9810023 11.560547,9.4414062 A 2.5817585,2.4616766 0.15110982 0 0 10.572266,9.25 a 2.5817585,2.4616766 0.15110982 0 0 -2.587891,2.455078 2.5817585,2.4616766 0.15110982 0 0 2.574219,2.46875 2.5817585,2.4616766 0.15110982 0 0 2.589844,-2.455078 2.5817585,2.4616766 0.15110982 0 0 -0.199219,-0.945312 C 13.55596,10.248915 14.147311,9.7286263 14.769531,9.25 14.169124,8.8297152 13.628257,8.4715662 13.087891,8.1113281 Z m 7.384765,0.1777344 c -1.440977,0 -2.582031,1.0819553 -2.582031,2.4628905 0,1.320896 1.141054,2.462891 2.582031,2.462891 0.338491,0 0.656703,-0.06467 0.951172,-0.173828 0.559321,0.573286 1.097463,1.143316 1.570313,1.734375 0.420285,-0.540366 0.840421,-1.082681 1.140625,-1.623047 -0.396503,-0.468594 -0.84175,-0.935704 -1.298828,-1.404297 0.138183,-0.30359 0.21875,-0.638785 0.21875,-0.996094 0,-1.3809352 -1.141056,-2.4628905 -2.582032,-2.4628905 z M 7.4433594,13.693359 C 1.3192095,20.537997 -1.4420652,27.443636 1.2597656,30.025391 3.4812709,32.18685 8.8249976,30.744948 14.708984,26.902344 14.108577,26.482059 13.50861,26.001803 12.908203,25.521484 9.3658024,27.44278 6.3028108,27.922459 4.921875,26.601562 3.0005731,24.740302 4.7424645,19.878415 8.9453125,14.955078 8.2848649,14.774956 7.7435628,14.293766 7.4433594,13.693359 Z m 1.6210937,3.482422 c -0.4202848,0.540366 -0.8404216,1.080728 -1.140625,1.621094 0.4284443,0.464151 0.8616635,0.928428 1.3027344,1.392578 a 2.5817585,2.4616766 0.150275 0 0 -0.2109375,0.96875 2.5817585,2.4616766 0.150275 0 0 2.574219,2.46875 2.5817585,2.4616766 0.150275 0 0 2.589844,-2.455078 2.5817585,2.4616766 0.150275 0 0 -2.576172,-2.46875 2.5817585,2.4616766 0.150275 0 0 -0.990235,0.1875 C 10.061309,18.324231 9.5317678,17.759929 9.0644531,17.175781 Z M 27.4375,17.236328 c -0.480325,0.600407 -0.961081,1.141781 -1.441406,1.742188 1.981342,3.422319 2.521055,6.302657 1.080078,7.683593 -1.981342,1.861261 -7.024001,0.120883 -12.1875,-3.841797 -0.180122,0.660441 -0.661313,1.20175 -1.261719,1.501954 7.144841,5.82394 14.350905,8.464561 17.052735,5.882812 2.221505,-2.221506 0.780538,-7.384967 -3.242188,-12.96875 z m -5.96875,0.511719 a 2.5817593,2.4616775 0.15783 0 0 -2.587891,2.453125 2.5817593,2.4616775 0.15783 0 0 0.183594,0.914062 c -0.61576,0.531312 -1.236015,1.047017 -1.833984,1.525391 0.600407,0.420285 1.139827,0.78038 1.740234,1.140625 0.516932,-0.406158 1.016182,-0.843344 1.515625,-1.294922 a 2.5817593,2.4616775 0.15783 0 0 0.970703,0.185547 2.5817593,2.4616775 0.15783 0 0 2.587891,-2.455078 2.5817593,2.4616775 0.15783 0 0 -2.576172,-2.46875 z"
     id="path5016"
     inkscape:connector-curvature="0" />
</svg>
