<?xml version="1.0" encoding="UTF-8" standalone="no"?>
<!-- Created with Inkscape (http://www.inkscape.org/) -->

<svg
   xmlns:dc="http://purl.org/dc/elements/1.1/"
   xmlns:cc="http://creativecommons.org/ns#"
   xmlns:rdf="http://www.w3.org/1999/02/22-rdf-syntax-ns#"
   xmlns:svg="http://www.w3.org/2000/svg"
   xmlns="http://www.w3.org/2000/svg"
   xmlns:sodipodi="http://sodipodi.sourceforge.net/DTD/sodipodi-0.dtd"
   xmlns:inkscape="http://www.inkscape.org/namespaces/inkscape"
   width="32"
   height="32"
   viewBox="0 0 32 32"
   version="1.1"
   id="svg8"
   inkscape:version="0.92.3 (unknown)"
   sodipodi:docname="skype.svg">
  <defs
     id="defs2" />
  <sodipodi:namedview
     id="base"
     pagecolor="#f5f5f5"
     bordercolor="#000000"
     borderopacity="0.16470588"
     inkscape:pageopacity="0"
     inkscape:pageshadow="2"
     inkscape:zoom="11.313708"
     inkscape:cx="-0.5961619"
     inkscape:cy="-11.741268"
     inkscape:document-units="px"
     inkscape:current-layer="svg8"
     showgrid="true"
     units="px"
     guidecolor="#00d1ae"
     guideopacity="0.49803922"
     inkscape:window-width="2727"
     inkscape:window-height="1324"
     inkscape:window-x="981"
     inkscape:window-y="573"
     inkscape:window-maximized="0"
     inkscape:snap-global="false">
    <inkscape:grid
       type="xygrid"
       id="grid815"
       color="#3fb6ff"
       opacity="0.1254902"
       empcolor="#3f96ff"
       empopacity="0.29019608" />
  </sodipodi:namedview>
  <metadata
     id="metadata5">
    <rdf:RDF>
      <cc:Work
         rdf:about="">
        <dc:format>image/svg+xml</dc:format>
        <dc:type
           rdf:resource="http://purl.org/dc/dcmitype/StillImage" />
        <dc:title />
      </cc:Work>
    </rdf:RDF>
  </metadata>
  <path
     style="fill:currentColor"
     d="m 19.041617,26.43507 c -0.297056,-0.0981 -0.724666,-0.2745 -0.950245,-0.39213 -0.303631,-0.15832 -0.812081,-0.21448 -1.957872,-0.21626 -1.115673,-0.002 -1.841233,-0.0791 -2.599135,-0.27717 -4.4980251,-1.17545 -7.6428041,-5.46924 -7.3472181,-10.03168 0.04218,-0.65107 0.02468,-1.21591 -0.03888,-1.25519 -0.155026,-0.0958 -0.632802,-1.61369 -0.734441,-2.33329 -0.120076,-0.85014 0.1452,-2.2812498 0.594272,-3.2059898 0.702557,-1.44671 1.926431,-2.5001 3.537345,-3.04459 1.2014271,-0.40608 2.9581491,-0.33145 4.0519351,0.17215 0.683528,0.3147 0.933166,0.35315 2.295436,0.35354 1.108885,2.7e-4 1.817139,0.0765 2.579907,0.2776 4.505683,1.18771 7.642779,5.4720298 7.347217,10.0340598 -0.04218,0.65109 -0.02468,1.21593 0.03889,1.25521 0.155026,0.0958 0.632802,1.61369 0.734441,2.33329 0.04482,0.31734 0.01821,0.98571 -0.05913,1.48529 -0.30409,1.96413 -1.535807,3.59962 -3.365244,4.46841 -0.915654,0.43484 -1.148268,0.48731 -2.302852,0.51936 -0.796262,0.0221 -1.489555,-0.0321 -1.824415,-0.14261 z m -1.174779,-4.2089 c 2.222352,-0.52393 3.419581,-1.83605 3.419581,-3.74772 0,-1.03368 -0.22045,-1.63157 -0.824189,-2.23531 -0.671521,-0.67152 -1.558164,-1.05457 -3.78718,-1.63614 -1.11957,-0.2921 -2.229615,-0.64442 -2.466764,-0.78292 -0.837956,-0.48939 -0.835104,-1.42507 0.0059,-1.94798 0.422869,-0.26292 0.688915,-0.31496 1.610155,-0.31496 1.313134,0 1.597433,0.15933 2.381239,1.33454 0.740364,1.11007 1.461658,1.29269 2.197881,0.55646 0.939671,-0.93967 -0.182077,-2.81604 -2.104526,-3.5202898 -0.79236,-0.29026 -2.963993,-0.4052 -3.916344,-0.20728 -2.165269,0.4499798 -3.40828,1.6626898 -3.412068,3.3288898 -0.0023,0.99738 0.244786,1.58897 0.925679,2.21659 0.758795,0.69944 1.421203,0.9838 3.481843,1.4947 2.581467,0.64004 3.021787,0.8991 3.149748,1.85311 0.06095,0.45441 0.01083,0.59742 -0.355756,1.01493 -0.523577,0.59632 -1.156703,0.82229 -2.303563,0.82216 -1.328422,-1.3e-4 -1.893659,-0.38151 -2.641033,-1.78183 -0.599922,-1.12405 -1.4252,-1.37499 -2.186134,-0.66472 -0.371761,0.34701 -0.412887,1.24815 -0.08659,1.89727 0.304499,0.60576 1.240822,1.55318 1.842011,1.86383 1.259754,0.65098 3.420412,0.84559 5.070065,0.45667 z"
     id="path5147"
     inkscape:connector-curvature="0"
     inkscape:export-xdpi="96"
     inkscape:export-ydpi="96" />
</svg>
